<?xml version="1.0" encoding="UTF-8"?>
<svg width="862px" height="873px" viewBox="0 0 862 873" version="1.1" xmlns="http://www.w3.org/2000/svg" xmlns:xlink="http://www.w3.org/1999/xlink">
    <!-- Generator: Sketch 48.2 (47327) - http://www.bohemiancoding.com/sketch -->
    <title>Veron_flower</title>
    <desc>Created with Sketch.</desc>
    <defs>
        <linearGradient x1="15.4233708%" y1="20.9972693%" x2="81.0183663%" y2="83.075926%" id="linearGradient-1">
            <stop stop-color="#FF9397" offset="0%"></stop>
            <stop stop-color="#5A21E8" offset="100%"></stop>
        </linearGradient>
        <linearGradient x1="20.3118722%" y1="17.9299951%" x2="74.8184007%" y2="90.7541134%" id="linearGradient-2">
            <stop stop-color="#FF9397" offset="0%"></stop>
            <stop stop-color="#5A21E8" offset="100%"></stop>
        </linearGradient>
        <linearGradient x1="20.3118722%" y1="17.9299951%" x2="86.2411246%" y2="86.4323856%" id="linearGradient-3">
            <stop stop-color="#FF9397" offset="0%"></stop>
            <stop stop-color="#5A21E8" offset="100%"></stop>
        </linearGradient>
        <linearGradient x1="69.3418784%" y1="18.6735967%" x2="13.270296%" y2="87.791719%" id="linearGradient-4">
            <stop stop-color="#FF9397" offset="0%"></stop>
            <stop stop-color="#5A21E8" offset="100%"></stop>
        </linearGradient>
        <linearGradient x1="82.4008657%" y1="19.3694937%" x2="50%" y2="83.4811083%" id="linearGradient-5">
            <stop stop-color="#FFF7C9" offset="0%"></stop>
            <stop stop-color="#FF879A" offset="100%"></stop>
        </linearGradient>
        <linearGradient x1="75.8313307%" y1="21.276332%" x2="50%" y2="100%" id="linearGradient-6">
            <stop stop-color="#FED00C" offset="0%"></stop>
            <stop stop-color="#FF0F4A" offset="100%"></stop>
        </linearGradient>
    </defs>
    <g id="Page-1" stroke="none" stroke-width="1" fill="none" fill-rule="evenodd">
        <g id="Veron_flower">
            <g id="Group-11">
                <g id="Group-2" transform="translate(201.000000, 178.000000)">
                    <path d="M217,178.5625 C223.666667,184.5625 231,188.895833 239,191.5625 C247,194.229167 250.333333,192.0625 249,185.0625 C234.333333,176.0625 225.333333,170.5625 222,168.5625 C218.666667,166.5625 217,169.895833 217,178.5625 Z" id="Path-6" fill="#FF7079"></path>
                    <path d="M247.257927,407.057899 C260.745421,429.094258 272.992171,445.491953 283.998176,456.250984 C309.323105,481.007623 327.856642,490.765148 332.961581,492.466794 C340.961581,495.133461 341.635177,490.090133 334.982369,477.33681 C316.836292,469.361298 302.160119,459.476007 290.953851,447.680937 C259.549834,414.626884 261.699043,405.535481 259.261713,404.073083 C255.92838,402.073083 251.927118,403.068022 247.257927,407.057899 Z" id="Path-6" fill="#FF7079" transform="translate(293.385577, 448.114965) rotate(-66.000000) translate(-293.385577, -448.114965) "></path>
                    <path d="M0,0 C17.3333333,54.6666667 62.6666667,106 136,154 C246,226 238,146 203,119 C168,92 52,30 36,20 C25.3333333,13.3333333 13.3333333,6.66666667 0,0 Z" id="Path-4" fill="url(#linearGradient-1)"></path>
                    <path d="M0,0 C17.3333333,54.6666667 62.6666667,106 136,154 C160.615874,170.112209 179.322569,178.612593 193.139871,181.798474 C194.728792,182.164834 196.253056,182.460916 197.714214,182.690214 C162,148 69,64 37,35 C15.6666667,15.6666667 3.33333333,4 0,0 Z" id="Path-4" fill="#2E2E2E" opacity="0.154664855"></path>
                </g>
                <g id="Group-3" transform="translate(366.000000, 0.000000)">
                    <path d="M195.297815,110 C155.964482,219.333333 135.631149,278.666667 134.297815,288 C133.13083,296.1689 125.031334,317.849807 119.297815,336 C118.297815,351 111.380351,357 109.297815,357 C104.297815,357 84.2978154,324 93.2978154,292 C102.297815,260 117.297815,241 136.297815,220 C148.964482,206 168.631149,169.333333 195.297815,110 Z" id="Path-5" fill="#003755"></path>
                    <g id="Group">
                        <path d="M27,0 C47.910645,42.7022695 63.2439783,73.7022695 73,93 C102.815244,151.97553 127.08102,199.218438 132,218 C143,260 145,310 106,350 C63,311 17,176 17,119 C17,81 20.3333333,41.3333333 27,0 Z" id="Path-2" fill="url(#linearGradient-2)"></path>
                        <path d="M17.2089774,108 C61.7363258,157.333333 90.6666667,196.5 104,225.5 C124,269 127,319 108,350 C84,310 54.4029925,243 19.2089774,149 C18.1542806,135.020611 17.487614,124.687277 17.2089774,118 C16.9303409,111.312723 16.9303409,107.979389 17.2089774,108 Z" id="Path-3" fill="#2E2E2E" opacity="0.154664855"></path>
                        <path d="M0.18,101 C-1.82,187.666667 12.8466667,248.333333 44.18,283 C75.5133333,317.666667 98.18,346 112.18,368 C108.18,297.333333 96.5133333,246.666667 77.18,216 C48.18,170 27.18,144 22.18,136 C18.8466667,130.666667 11.5133333,119 0.18,101 Z" id="Path" fill="url(#linearGradient-3)"></path>
                    </g>
                    <g id="Group-6" transform="translate(156.000000, 434.000000)">
                        <path d="M218.06415,19 C198.06415,52.3333333 164.397483,82.3333333 117.06415,109 C102.806,117.032761 104,169 57,169 C13.68068,169 42.8674257,142.188534 46.0641496,131 C50.0641496,117 73.0641496,79 99.0641496,64 C125.06415,49 164.06415,45 183.06415,36 C195.730816,30 207.397483,24.3333333 218.06415,19 Z" id="Path-15" fill="#CC9ED7"></path>
                        <path d="M167.557067,0 C118.147644,72 88.2952887,119.333333 78,142 C53,188 18,192 7,178 C-4,164 1.40998324e-13,153 12,131 C34,94 117.557067,32 129.557067,24 C137.557067,18.6666667 150.223734,10.6666667 167.557067,0 Z" id="Path-14" fill="url(#linearGradient-4)"></path>
                    </g>
                    <g id="Group-5" transform="translate(50.000000, 522.000000)" fill="#002E47">
                        <g id="Group-4" transform="translate(116.000000, 38.000000)">
                            <path d="M51,138 C49.9703353,139.380916 49.9703353,140.047583 51,140 C69.452797,139.147257 88.9268236,134.691059 100,131 C112,127 130,119.333333 154,108 C122,112.666667 102.333333,116.333333 95,119 C87.6666667,121.666667 73,128 51,138 Z" id="Path-16"></path>
                            <path d="M57.2160185,114.26284 C56.0914709,117.027515 56.0440295,118.38606 57.0736942,118.338477 C75.5264912,117.485734 91.7016301,113.619359 102.774806,109.9283 C114.774806,105.9283 131.698883,98.847962 153.547036,88.6872858 C125.993024,90.4043221 108.549352,92.5961736 101.216019,95.2628403 C96.9848436,96.8014493 89.1119824,99.149361 79.9982144,103.129267 C75.5436043,105.074557 67.949539,108.785749 57.2160185,114.26284 Z" id="Path-16" transform="translate(104.941248, 103.513485) rotate(-2.000000) translate(-104.941248, -103.513485) "></path>
                            <path d="M65.3858199,92.2630073 C64.2380059,95.6939423 64.1789313,97.3856183 65.208596,97.3380353 C83.661393,96.4852921 99.8714314,91.6195258 110.944608,87.928467 C122.944608,83.928467 139.868684,76.848129 161.716838,66.6874528 C134.162826,68.4044891 116.719153,70.5963406 109.38582,73.2630073 C105.154645,74.8016164 97.2817837,77.1495281 88.1680157,81.1294336 C83.7134056,83.0747243 76.1193403,86.7859155 65.3858199,92.2630073 Z" id="Path-16" transform="translate(113.097543, 82.013232) rotate(-2.000000) translate(-113.097543, -82.013232) "></path>
                            <path d="M74.3366357,68.811404 C73.3191096,71.3129685 73.2761831,72.5422235 74.2078561,72.4991689 C90.9045279,71.72758 105.540303,68.2291617 115.559662,64.8893755 C126.417639,61.2700496 141.731077,54.8635367 161.499974,45.669837 C136.568236,47.2234655 120.784652,49.2067218 114.149221,51.6196058 C110.320721,53.0117877 103.197108,55.1362521 94.9506839,58.737396 C90.9200124,60.4975563 84.048663,63.8555589 74.3366357,68.811404 Z" id="Path-16" transform="translate(117.519926, 59.085049) rotate(-2.000000) translate(-117.519926, -59.085049) "></path>
                            <path d="M82.1612388,42.8856116 C81.2582986,45.1054691 81.2202062,46.1962948 82.0469613,46.1580887 C96.8633824,45.4733903 109.850989,42.3689369 118.742045,39.4052517 C128.37728,36.1935064 141.966236,30.5084458 159.508912,22.3500698 C137.384795,23.7287407 123.378637,25.4886578 117.490437,27.6298214 C114.093073,28.8652265 107.771667,30.7504501 100.453891,33.9460609 C96.8771231,35.5080054 90.7795722,38.4878556 82.1612388,42.8856116 Z" id="Path-16" transform="translate(120.481559, 34.254564) rotate(-2.000000) translate(-120.481559, -34.254564) "></path>
                            <path d="M90.0746931,20.305559 C89.2527627,22.326256 89.2180877,23.3192153 89.9706684,23.284437 C103.457794,22.6611681 115.280183,19.8352392 123.373553,17.137449 C132.144338,14.2138541 144.514124,9.03884406 160.482911,1.61241885 C140.343719,2.86739849 127.594161,4.46941994 122.234237,6.4184832 C119.141677,7.5430506 113.387412,9.25913627 106.726171,12.1680442 C103.470302,13.5898547 97.9198095,16.3023596 90.0746931,20.305559 Z" id="Path-16" transform="translate(124.957002, 12.448869) rotate(-2.000000) translate(-124.957002, -12.448869) "></path>
                            <path d="M45.9520492,156.992726 C45.309969,158.874509 45.5063541,159.792068 46.5412044,159.745404 C64.5255686,158.934439 83.1862231,153.757283 94.2327681,150.075101 C106.232768,146.075101 123.805862,138.380976 146.952049,126.992726 C116.285383,131.659393 97.2853826,135.326059 89.9520492,137.992726 C82.6187159,140.659393 67.9520492,146.992726 45.9520492,156.992726 Z" id="Path-16" transform="translate(96.267665, 143.369912) rotate(2.000000) translate(-96.267665, -143.369912) "></path>
                            <path d="M39.6970888,179.767314 C39.0550086,181.649096 39.2513937,182.566656 40.286244,182.519991 C58.2706082,181.709026 76.9312627,176.531871 87.9778077,172.849689 C99.9778077,168.849689 117.550901,161.155564 140.697089,149.767314 C107.296211,154.39805 86.9291052,158.046752 79.5957718,160.713419 C72.2624385,163.380085 58.9628775,169.731384 39.6970888,179.767314 Z" id="Path-16" transform="translate(90.012704, 166.144499) rotate(4.000000) translate(-90.012704, -166.144499) "></path>
                            <path d="M32.3236024,199.58847 C31.6815222,201.470253 31.8779072,202.387812 32.9127575,202.341148 C50.8971217,201.530183 69.5577762,196.353027 80.6043213,192.670845 C92.6043213,188.670845 111.084603,181.557811 136.045167,171.331742 C100.829913,174.800297 79.5556187,177.867908 72.2222854,180.534575 C64.8889521,183.201242 51.589391,189.55254 32.3236024,199.58847 Z" id="Path-16" transform="translate(84.000000, 186.837292) rotate(4.000000) translate(-84.000000, -186.837292) "></path>
                            <path d="M25.7013761,219.732215 C25.0592959,221.613998 25.255681,222.531558 26.2905313,222.484893 C44.2748955,221.673928 62.93555,216.496772 73.9820951,212.814591 C85.9820951,208.814591 104.810682,201.261583 130.467855,190.155569 C93.3478617,194.377831 71.1211985,197.822295 63.7878652,200.488962 C58.6912081,202.342292 49.3939452,204.882135 39.11719,210.355967 C36.1105429,211.957433 31.6386049,215.082849 25.7013761,219.732215 Z" id="Path-16" transform="translate(77.900231, 206.321078) rotate(2.000000) translate(-77.900231, -206.321078) "></path>
                            <path d="M17.8065992,241.07513 C17.164519,242.956912 17.3609041,243.874472 18.3957544,243.827807 C36.3801186,243.016842 55.0407731,237.839687 66.0873181,234.157505 C78.0873181,230.157505 96.9159047,222.604498 122.573078,211.498483 C85.4530848,215.720745 63.2264216,219.165209 55.8930883,221.831876 C50.7964312,223.685206 41.4991683,226.225049 31.2224131,231.698881 C28.2157659,233.300347 23.743828,236.425763 17.8065992,241.07513 Z" id="Path-16" transform="translate(70.005454, 227.663992) rotate(3.000000) translate(-70.005454, -227.663992) "></path>
                            <path d="M11.0900392,257.44497 C17.6231438,254.596827 22.5931308,252.448504 26,251 C37.644719,246.048996 52.325927,243.494333 58,242 C66.1641492,239.849877 89.0730358,237.927904 126.72666,236.234082 C97.9544191,245.738457 75.316873,249.887345 62,253 C49.7412135,255.865341 30.7480592,261.701516 11.3980102,260.582577 C10.2845761,260.518191 10.1819191,259.472322 11.0900392,257.44497 Z" id="Path-16"></path>
                            <path d="M7.71782879,275.041734 C14.2509334,272.193591 19.2209204,270.045267 22.6277896,268.596763 C34.2725086,263.64576 54.5467058,260.494333 60.2207788,259 C68.384928,256.849877 85.7008254,255.524668 123.354449,253.830846 C94.5822087,263.335221 73.5376518,269.643736 60.2207788,272.756391 C47.9619923,275.621731 27.3758488,279.29828 8.0257998,278.17934 C6.91236568,278.114955 6.80970867,277.069086 7.71782879,275.041734 Z" id="Path-16"></path>
                            <path d="M1,297 C7.53310464,294.151857 14.5931308,292.448504 18,291 C29.644719,286.048996 43.325927,283.494333 49,282 C57.1641492,279.849877 82.7008254,278.524668 120.354449,276.830846 C91.5822087,286.335221 70.5376518,292.643736 57.2207788,295.756391 C44.9619923,298.621731 20.350049,304.118939 1,303 C-0.113434119,302.935614 0.091879885,299.027352 1,297 Z" id="Path-16"></path>
                            <path d="M64.0302946,317.062938 C57,317 31,317 14.2029868,316.923824 C16.3157818,316.011798 18.1240494,315.236111 19.6277896,314.596763 C31.2725086,309.64576 45.9537166,307.091096 51.6277896,305.596763 C59.7919388,303.44664 82.7008254,301.524668 120.354449,299.830846 C91.6540888,309.006244 72.8793705,314.750275 64.0302946,317.062938 Z" id="Path-16"></path>
                        </g>
                        <g id="Group-4" transform="translate(110.500000, 189.000000) scale(-1, 1) translate(-110.500000, -189.000000) translate(0.000000, 15.000000)">
                            <path d="M35.3547851,134.866876 C34.3251204,136.247792 34.3251204,136.914459 35.3547851,136.866876 C53.8075821,136.014133 73.3783261,131.853179 84.4515025,128.162121 C88.4383182,126.833182 93.395414,125.632875 98.7067881,123.494484 C105.823749,120.629153 119.039748,114.41995 138.354785,104.866876 C106.354785,109.533543 86.6881185,113.200209 79.3547851,115.866876 C74.8845568,117.492414 67.0099054,119.30205 57.0897841,123.652534 C52.854005,125.510141 45.6090054,129.248255 35.3547851,134.866876 Z" id="Path-16" transform="translate(86.468661, 120.868065) rotate(-35.000000) translate(-86.468661, -120.868065) "></path>
                            <path d="M28.7095563,116.357271 C27.5850087,119.121945 27.5375672,120.480491 28.5672319,120.432908 C47.0200289,119.580165 63.1951678,115.713789 74.2683442,112.022731 C86.2683442,108.022731 103.192421,100.942393 125.040574,90.7817165 C97.4865622,92.4987528 80.0428896,94.6906043 72.7095563,97.3572709 C68.4783814,98.89588 60.6055201,101.243792 51.4917522,105.223697 C47.037142,107.168988 39.4430767,110.880179 28.7095563,116.357271 Z" id="Path-16" transform="translate(76.434786, 105.607916) rotate(-37.000000) translate(-76.434786, -105.607916) "></path>
                            <path d="M23.4402271,94.3137678 C22.3156795,97.0784423 22.2682381,98.436988 23.2979028,98.389405 C41.7506998,97.5366619 57.9258387,93.6702864 68.9990151,89.9792276 C80.9990151,85.9792276 97.9230916,78.8988895 119.771245,68.7382134 C92.217233,70.4552497 74.7735605,72.6471012 67.4402271,75.3137678 C63.2090522,76.8523769 55.336191,79.2002886 46.222423,83.1801942 C41.7678129,85.1254849 34.1737476,88.8366761 23.4402271,94.3137678 Z" id="Path-16" transform="translate(71.165456, 83.564413) rotate(324.000000) translate(-71.165456, -83.564413) "></path>
                            <path d="M17.6192056,70.9080731 C16.6016795,73.4096376 16.5587529,74.6388925 17.490426,74.5958379 C34.1870978,73.8242491 48.8228727,70.3258308 58.8422314,66.9860446 C69.7002093,63.3667186 85.0136467,56.9602058 104.782544,47.7665061 C79.8508061,49.3201346 64.0672219,51.3033908 57.431791,53.7162748 C53.6032907,55.1084567 46.479678,57.2329212 38.2332537,60.8340651 C34.2025822,62.5942253 27.3312328,65.952228 17.6192056,70.9080731 Z" id="Path-16" transform="translate(60.802496, 61.181718) rotate(-37.000000) translate(-60.802496, -61.181718) "></path>
                            <path d="M6.84256687,47.5459984 C6.01459017,49.4420216 5.97966019,50.3737169 6.73777693,50.3410843 C20.3241167,49.7562701 32.2334729,47.1046966 40.3863798,44.5733558 C49.2216842,41.8301421 61.6824647,36.9744221 77.7687216,30.0061956 C57.4813816,31.183745 44.6380353,32.6869242 39.2386827,34.5157334 C36.1233729,35.5709167 30.3267791,37.1811226 23.6165363,39.9105555 C20.3367167,41.2446425 14.7453935,43.7897901 6.84256687,47.5459984 Z" id="Path-16" transform="translate(41.981477, 40.174054) rotate(-44.000000) translate(-41.981477, -40.174054) "></path>
                            <path d="M0.122836247,30.3213715 C-0.480099414,31.9280248 -0.505535553,32.7175253 0.0465278299,32.6898731 C9.94015015,32.1943129 18.6125869,29.9474209 24.5495636,27.8024118 C30.9834645,25.4778657 40.0574505,21.3632227 51.7715216,15.4584827 C36.9982064,16.4563152 27.6456346,17.7300801 23.7138063,19.2797775 C21.4452263,20.1739195 17.2241255,21.5383767 12.3377022,23.8512452 C9.94932549,24.9817247 5.87770351,27.1384334 0.122836247,30.3213715 Z" id="Path-16" transform="translate(25.711119, 24.074529) rotate(-43.000000) translate(-25.711119, -24.074529) "></path>
                            <path d="M43.5673238,155.628596 C42.9252436,157.510379 43.1216287,158.427938 44.156479,158.381274 C62.1408432,157.570309 80.8014977,152.393153 91.8480427,148.710972 C103.848043,144.710972 122.43782,137.349588 147.617376,126.62682 C137.267878,126.449511 129.778999,126.616272 125.15074,127.127105 C106.319186,129.205589 93.1171157,133.044007 87.759066,134.992388 C82.9114506,136.755158 73.1687774,139.650541 61.8563842,145.094422 C57.9892707,146.955399 51.8929172,150.46679 43.5673238,155.628596 Z" id="Path-16" transform="translate(95.407965, 142.470629) rotate(-31.000000) translate(-95.407965, -142.470629) "></path>
                            <path d="M49.9049642,176.868274 C49.262884,178.750057 49.459269,179.667616 50.4941194,179.620952 C68.4784835,178.809986 87.139138,173.632831 98.1856831,169.950649 C110.185683,165.950649 128.450513,158.052386 152.980174,146.25586 C140.032212,146.559235 130.713726,147.182169 125.024717,148.124661 C107.90566,150.960757 88.7524023,156.608957 83.8585555,158.388538 C76.5252222,161.055204 65.2073584,167.215116 49.9049642,176.868274 Z" id="Path-16" transform="translate(101.258184, 162.939253) rotate(-31.000000) translate(-101.258184, -162.939253) "></path>
                            <path d="M62.0178217,195.815623 C59.608271,199.777286 58.9209208,201.734785 59.9557712,201.688121 C77.9401354,200.877155 99.2519956,192.58018 110.298541,188.897999 C122.298541,184.897999 140.778823,177.784964 165.739386,167.558895 C130.524132,171.027451 109.249838,174.095062 101.916505,176.761728 C94.5831714,179.428395 81.2836104,185.779693 62.0178217,195.815623 Z" id="Path-16" transform="translate(112.614393, 184.623915) rotate(-32.000000) translate(-112.614393, -184.623915) "></path>
                            <path d="M66.0041322,218.0351 C65.362052,219.916883 65.558437,220.834442 66.5932874,220.787778 C84.5776516,219.976813 103.238306,214.799657 114.284851,211.117475 C126.284851,207.117475 145.113438,199.564468 170.770611,188.458454 C133.650618,192.680715 111.423955,196.12518 104.090621,198.791846 C98.9939642,200.645176 89.6967012,203.18502 79.419946,208.658851 C76.4132989,210.260318 71.9413609,213.385734 66.0041322,218.0351 Z" id="Path-16" transform="translate(118.202987, 204.623963) rotate(331.000000) translate(-118.202987, -204.623963) "></path>
                            <path d="M72.4068189,238.0351 C71.7647386,239.916883 71.9611237,240.834442 72.995974,240.787778 C90.9803382,239.976813 109.640993,234.799657 120.687538,231.117475 C132.687538,227.117475 151.516124,219.564468 177.173297,208.458454 C140.053304,212.680715 117.826641,216.12518 110.493308,218.791846 C105.396651,220.645176 96.0993879,223.18502 85.8226327,228.658851 C82.8159856,230.260318 78.3440476,233.385734 72.4068189,238.0351 Z" id="Path-16" transform="translate(124.605673, 224.623963) rotate(331.000000) translate(-124.605673, -224.623963) "></path>
                            <path d="M78.0261421,253.854863 C84.5592467,251.00672 89.5292336,248.858396 92.9361029,247.409892 C104.580822,242.458889 119.26203,239.904225 124.936103,238.409892 C133.100252,236.259769 156.009139,234.337796 193.662763,232.643975 C164.890522,242.148349 142.252976,246.297237 128.936103,249.409892 C116.677316,252.275233 97.6841621,258.111408 78.3341131,256.992469 C77.2206789,256.928083 77.1180219,255.882215 78.0261421,253.854863 Z" id="Path-16" transform="translate(135.538494, 244.888563) rotate(331.000000) translate(-135.538494, -244.888563) "></path>
                            <path d="M86.3191142,273.260626 C92.8522189,270.412483 97.8222058,268.26416 101.229075,266.815656 C112.873794,261.864652 133.147991,258.713225 138.822064,257.218892 C146.986213,255.068769 164.302111,253.74356 201.955735,252.049738 C173.183494,261.554113 152.138937,267.862628 138.822064,270.975283 C126.563278,273.840624 105.977134,277.517172 86.6270852,276.398233 C85.5136511,276.333847 85.4109941,275.287978 86.3191142,273.260626 Z" id="Path-16" transform="translate(143.831466, 264.326873) rotate(333.000000) translate(-143.831466, -264.326873) "></path>
                            <path d="M93.0584142,295.63565 C99.5915189,292.787507 106.651545,291.084154 110.058414,289.63565 C121.703133,284.684646 135.384341,282.129983 141.058414,280.63565 C149.222563,278.485526 174.75924,277.160317 212.412864,275.466496 C183.640623,284.97087 162.596066,291.279385 149.279193,294.392041 C137.020407,297.257381 112.408463,302.754589 93.0584142,301.63565 C91.9449801,301.571264 92.1502941,297.663002 93.0584142,295.63565 Z" id="Path-16" transform="translate(152.355625, 288.625115) rotate(334.000000) translate(-152.355625, -288.625115) "></path>
                            <path d="M116.296831,317.319924 C117.142941,317.031231 118.100816,316.669848 118.726433,316.403854 C130.371152,311.452851 144.05236,308.898187 149.726433,307.403854 C157.890582,305.253731 183.427258,303.928522 221.080882,302.2347 C192.308641,311.739075 171.264085,318.04759 157.947212,321.160245 C152.14842,322.515641 143.585501,324.459941 134.122919,326.014288 C124.370056,321.297909 126.857368,322.699817 116.296831,317.319924 Z" id="Path-16" transform="translate(168.688857, 314.124494) rotate(334.000000) translate(-168.688857, -314.124494) "></path>
                        </g>
                        <path d="M160,205 L115,355 L108,355 L158,198 C188,110.666667 204,64.6666667 206,60 C209,53 209,60 207,65 C205.666667,68.3333333 195.666667,97.6666667 177,153 L160,205 Z" id="Path-17"></path>
                        <path d="M240,0 C233.333333,26.6666667 223.333333,46.3333333 210,59 C207,62 206,58 207,53 C208,48 213,34.016686 216,30.016686 C217.59702,27.8873254 223.176636,18.2058627 232,8 C233.484279,6.28315543 236.150945,3.61648876 240,0 Z" id="Path-18"></path>
                    </g>
                </g>
                <path d="M346,434 C382.666667,485.333333 402,513 404,517 C406,521 409,520.333333 413,515 C400.666667,500.333333 392,488.666667 387,480 C379.5,467 360,443 356,440 C353.333333,438 350,436 346,434 Z" id="Path-9" fill="#003755"></path>
                <g id="leftBotLeafWithShadow" transform="translate(2.000000, 585.000000)">
                    <path d="M1,0 C-0.333333333,20 34.6666667,59.6666667 106,119 C159.333333,169 212.666667,226.666667 266,292 L442,292 C365.333333,208.666667 314,156 288,134 C249,101 188,53 118,42 C71.3333333,34.6666667 32.3333333,20.6666667 1,0 Z" id="Path-12" fill="#007790"></path>
                    <path d="M32,51 C50,71 72.3333333,92.3333333 99,115 C125.666667,137.666667 181,196.666667 265,292 L295,292 C295.666667,260.666667 285.666667,244 265,242 C234,239 208,185 203,177 C198,169 209,145 193,131 C174,114 165,127 143,119 C121,111 107,93 103,87 C99,81 87,64 55,58 C39.6666667,54 32,51.6666667 32,51 Z" id="Path-13" fill="#004F6B"></path>
                    <path d="M272.613279,88.8773805 C309.279946,140.210714 328.613279,167.877381 330.613279,171.877381 C332.613279,175.877381 335.613279,175.210714 339.613279,169.877381 C321.876593,152.339528 310.508249,139.237269 305.508249,130.570602 C298.008249,117.570602 285.169511,98.1075819 281.169511,95.1075819 C278.502845,93.1075819 275.650767,91.0308481 272.613279,88.8773805 Z" id="Path-9" fill="#003755" transform="translate(306.113279, 131.663095) rotate(-20.000000) translate(-306.113279, -131.663095) "></path>
                </g>
                <g id="leftBotDarkLeaf" transform="translate(162.000000, 429.000000)" fill="#002E47">
                    <path d="M-7.10542736e-15,5.68434189e-14 C42,88 70,141.666667 84,161 C105,190 153,281 193,345 C219.666667,387.666667 239,422 251,448 L401,448 C350.333333,346 312.666667,280.666667 288,252 C251,209 109,91 79,70 C59,56 32.6666667,32.6666667 -7.10542736e-15,5.68434189e-14 Z" id="Path-11"></path>
                </g>
                <g id="Group-10" transform="translate(0.000000, 117.000000)">
                    <path d="M419,760 L466,760 C452.666667,665.333333 446.333333,603.333333 447,574 C447,561.663423 446.032274,543.756726 444,515 C441.090205,473.826326 441.196566,416.102461 483,369 C538,316 609,246 628,215 C640.666667,194.333333 695,122.666667 791,0 C747.666667,49.3333333 713.333333,79.6666667 688,91 C650,108 630,112 584,179 C574,189 566,184 545,190 C524,196 515,212 498,223 C481,234 469,231 453,238 C437,245 419,270 417,312 C401,285 358,202 316,201 C290,199 271,175 243,171 C215,167 184,187 119,165 C54,143 10,136 0,136 C20,143 24,145 67,181 C113,222 126,230 157,233 C170.249643,234.282224 202.728405,239.320519 238,244 C285.252852,250.269034 337.975565,257.846671 350,263 C371,272 390,288 403,330 C414,368 401,376 401,418 C400.344055,439.208898 395.954264,455.075209 395.5,470 C393.876665,523.334518 397.437297,544.527289 399,575 C399.978737,594.085371 402.273707,635.83707 409,693 C410.624624,706.806752 413.957957,729.140086 419,760 Z" id="Path-7" fill="#007790"></path>
                    <path d="M459,405 C470.025256,388.291916 479.691923,375.291916 488,366 C499.6693,352.948826 517.459957,336.895279 531,324 C573,284 630,216 642,196 C650,182.666667 662,166 678,146 C647.416667,162.666667 623.791667,185.333333 607.125,214 C602.125,222 600.125,217 592.125,217 C584.125,217 546.125,231 538.125,251 C530.125,271 535.125,277 518.125,286 C501.125,295 466.125,312 457.125,325 C448.125,338 445.125,357 448.125,373 C450.125,383.666667 453.75,394.333333 459,405 Z" id="Path-8" fill="#005D78"></path>
                </g>
                <path d="M28,266 C60.6666667,294 79.3333333,310 84,314 C91,320 115,340 129,344 C143,348 172,352 200,356 C228,360 234,361 258,364 C282,367 337,371 362,385 C362,373 347,353 339,350 C331,347 322,350 317,350 C312,350 276,347 252,334 C228,321 201,305 186,316 C171,327 176,328 165,328 C154,328 147,330 152,332 C157,334 187,349 181,350 C175,351 169,351 164,346 C160.666667,342.666667 154.333333,336.666667 145,328 L130,329 L28,266 Z" id="Path-10" fill="#005D78"></path>
                
                <path d="M589,877 C588.333333,842.333333 590,819.666667 594,809 C597,800 598,798 601,800 C604,802 611,821 621,832 C631,843 651,862 667,863 C683,864 665,850 662,847 C659,844 620,811 613,785 C609.286658,771.207586 614.282296,762.784113 621,753 C626.945801,744.340138 634.244186,732.755814 638,729 C644,723 645,724 645,725 C645,726 650,764 658,782 C666,800 673,811 679,816 C685,821 700,826 690,807 C680,788 669,785 663,771 C657,757 653,733 653,724 C653,715 655,715 662,709 C669,703 684,694 687,691 C690,688 692,688 692,692 C692,696 691,729 697,751 C703,773 712,787 718,792 C724,797 726,788 723,779 C720,770 701,731 703,709 C705,687 708,684 715,681 C718.719233,679.406043 729.406764,676.590224 739,674 C747.462273,671.715142 755.343405,669.250553 753,673 C748,681 740,705 741,722 C742,739 744,759 751,755 C758,751 753,724 753,717 C753,710 752,688 760,681 C768,674 772,673 782,675 C792,677 795,682 807,683 C819,684 820,682 820,689 C820,696 820,698 824,705 C828,712 854,736 841,754 C828,772 809,784 789,789 C769,794 774,803 780,802 C786,801 805,796 818,787 C831,778 843,767 849,756 C852,745 855,759 856,765 C857,771 864,789 838,806 C812,823 784,830 774,834 C764,838 770,843 774,843 C778,843 800,837 810,833 C820,829 841,820 852,806 C863,792 860,798 861,807 C862,816 867,873 823,875 C779,877 768,872 765,872 C762,872 751,871 753,877 C748.333333,877 693.666667,877 589,877 Z" id="Path-30" fill="#007790"></path>
                <path d="M812,692 C797.804575,717.858711 787.137908,737.525378 780,751 C772.862092,764.474622 750.862092,806.474622 714,877 L712,877 C729.128526,842.317938 740.795193,818.984605 747,807 C760.785475,780.373312 769.806074,765.581777 771,762 C772.510767,757.4677 781.175139,741.313241 796,717 C799.200501,711.751078 804.533834,703.417745 812,692 Z" id="Path-22" fill="#AEC757"></path>
                <path d="M601,824 C607.666667,840.666667 616.333333,853.666667 627,863 C637.666667,872.333333 645,877 649,877 L653,877 C645.839499,873.511031 640.839499,870.844364 638,869 C627.890072,862.433213 621.159619,855.566787 616,849 C608.666667,839.666667 603.666667,831.333333 601,824 Z" id="Path-23" fill="#AEC757"></path>
                <path d="M801,768 C791.666667,774 785,777.666667 781,779 C775,781 762,784 761,784 C761.666667,782.666667 762.333333,782 763,782 C769,780.666667 774.333333,779.333333 779,778 C783.666667,776.666667 791,773.333333 801,768 Z" id="Path-24" fill="#AEC757"></path>
                <path d="M735,773 C737.666667,782.333333 739.666667,788.333333 741,791 C742.333333,793.666667 744.666667,799.333333 748,808 L749,805 C746.333333,798.333333 744,793 742,789 C740,785 737.666667,779.666667 735,773 Z" id="Path-25" fill="#AEC757"></path>
                <path d="M741,829 C755.666667,825 764.333333,822.666667 767,822 C771,821 795,813 798,812 C800,811.333333 804.333333,809 811,805 C799,809.666667 790,813 784,815 C775,818 763,822 757,823 C753,823.666667 747.666667,825.666667 741,829 Z" id="Path-26" fill="#AEC757"></path>
                <path d="M723,862 C739,861.333333 748.666667,861 752,861 C757,861 783,857.5 788,857 C791.333333,856.666667 799,854.666667 811,851 C794.333333,854.333333 781.333333,856.333333 772,857 C762.666667,857.666667 746.333333,859.333333 723,862 Z" id="Path-27" fill="#AEC757"></path>
                <path d="M688,769 C691.333333,784.333333 696,796 702,804 C708,812 716.666667,825.666667 728,845 C718.666667,826.333333 713,815.666667 711,813 C708,809 699,797 696,790 C694,785.333333 691.333333,778.333333 688,769 Z" id="Path-28" fill="#AEC757"></path>
                <path d="M708,877 L705,877 C693,859 685,847.666667 681,843 C675,836 658,815 655,811 C652,807 643,789 641,783 C645,789 653,803 654,805 C655,807 665,822 671,829 C672.977181,831.306711 677.95069,836.155193 684,844 C688.125962,849.35059 696.125962,860.35059 708,877 Z" id="Path-29" fill="#AEC757"></path>
                <path d="M658,762 C591.333333,826 553.666667,864.333333 545,877 C535,877 532,877 536,877 C550.51583,860.363268 560.182497,849.029935 565,843 C572.79201,833.246957 577.232877,825.113014 580,822 C588,813 600,805 611,798 C618.333333,793.333333 634,781.333333 658,762 Z" id="Path-19" fill="#003755"></path>
                <path d="M848,875 C846.666667,876.333333 845.666667,877 845,877 C846.333333,877 847.666667,877 849,877 C849.122667,876.578668 849.122667,876.245335 849,876 C848.877333,875.754665 848.543999,875.421332 848,875 Z" id="Path-31" fill="#007790"></path>
            </g>
            <g id="Group-8" transform="translate(494.000000, 698.000000)">
                <path d="M60,24 C66.6666667,106.666667 60.6666667,158.333333 42,179 C26,179 18,179 18,179 C6,158 6,131.833333 18,100.5 C30,69.1666667 44,43.6666667 60,24 Z" id="Path-20" fill="url(#linearGradient-5)"></path>
                <path d="M33.25,0 C34.1366396,22.0792841 35.1366396,36.4126174 36.25,43 C48.25,114 41.8513826,156.45287 23.25,179 C13.9166667,179 11.1666667,179 15,179 C10.0090558,160.807424 6.67572247,147.807424 5,140 C1.36662658,123.071608 2.98329094e-15,110 3.55271368e-15,96 C4.48950593e-15,82 3,69 11,46 C16.3573192,30.5977073 23.7739859,15.264374 33.25,0 Z" id="Path-21" fill="url(#linearGradient-6)"></path>
            </g>
            <polygon id="Path-32" fill="#F6A301" points="491 877 483 863 474 863 480 877"></polygon>
            <path d="M444,839 C449,848 474,885 489,867 C504,849 481,815 474,801 C469.333333,791.666667 445.333333,756.333333 402,695 C397.333333,726.333333 402.666667,757.333333 418,788 C441,834 439,830 444,839 Z" id="Path-33" fill="url(#linearGradient-6)"></path>
        </g>
    </g>
</svg>